<svg xmlns="http://www.w3.org/2000/svg" xmlns:xlink="http://www.w3.org/1999/xlink" width="500" zoomAndPan="magnify" viewBox="0 0 375 374.999991" height="500" preserveAspectRatio="xMidYMid meet" version="1.0"><path fill="#dcddde" d="M 181.878906 109.984375 C 181.878906 151.8125 147.957031 185.726562 106.128906 185.726562 C 64.273438 185.726562 30.363281 151.820312 30.363281 109.984375 C 30.363281 68.148438 64.273438 34.238281 106.128906 34.238281 C 147.957031 34.230469 181.878906 68.148438 181.878906 109.984375 " fill-opacity="1" fill-rule="nonzero"/><path fill="#dcddde" d="M 348.15625 109.984375 C 348.15625 151.8125 314.242188 185.726562 272.402344 185.726562 C 230.558594 185.726562 196.648438 151.820312 196.648438 109.984375 C 196.648438 68.148438 230.558594 34.238281 272.402344 34.238281 C 314.242188 34.238281 348.15625 68.148438 348.15625 109.984375 " fill-opacity="1" fill-rule="nonzero"/><path fill="#dcddde" d="M 181.878906 275.53125 C 181.878906 317.367188 147.957031 351.28125 106.128906 351.28125 C 64.273438 351.28125 30.363281 317.367188 30.363281 275.53125 C 30.363281 233.695312 64.273438 199.785156 106.128906 199.785156 C 147.957031 199.785156 181.878906 233.695312 181.878906 275.53125 " fill-opacity="1" fill-rule="nonzero"/><path fill="#00aeef" d="M 348.15625 275.53125 C 348.15625 317.367188 314.242188 351.28125 272.402344 351.28125 C 230.558594 351.28125 196.648438 317.367188 196.648438 275.53125 C 196.648438 233.695312 230.558594 199.785156 272.402344 199.785156 C 314.242188 199.785156 348.15625 233.695312 348.15625 275.53125 " fill-opacity="1" fill-rule="nonzero"/></svg>